<?xml version="1.0" standalone="no"?>
<!DOCTYPE svg PUBLIC "-//W3C//DTD SVG 20010904//EN"
 "http://www.w3.org/TR/2001/REC-SVG-20010904/DTD/svg10.dtd">
<svg version="1.0" xmlns="http://www.w3.org/2000/svg"
 width="700.000000pt" height="700.000000pt" viewBox="0 0 700.000000 700.000000"
 preserveAspectRatio="xMidYMid meet">
<metadata>
Created by potrace 1.14, written by Peter Selinger 2001-2017
</metadata>
<g transform="translate(0.000000,700.000000) scale(0.100000,-0.100000)"
fill="#000000" stroke="none">
<path d="M3458 6088 c-19 -18 -73 -67 -119 -108 -46 -41 -86 -77 -89 -80 -3
-3 -45 -41 -95 -85 -49 -44 -99 -89 -111 -100 -11 -11 -54 -49 -94 -85 -40
-36 -78 -70 -84 -75 -6 -6 -128 -116 -271 -244 -143 -128 -300 -270 -349 -315
-48 -44 -102 -92 -119 -106 -16 -14 -46 -41 -66 -60 -21 -19 -73 -66 -116
-105 -44 -38 -102 -91 -130 -116 -27 -25 -77 -70 -110 -100 -33 -30 -101 -90
-150 -134 -91 -82 -176 -159 -276 -249 -30 -28 -73 -67 -95 -86 -142 -127
-345 -310 -377 -340 -22 -19 -49 -43 -60 -52 -12 -10 -53 -47 -92 -83 l-70
-65 437 0 436 0 1 -1127 c0 -621 0 -1146 1 -1168 l0 -40 2040 0 2040 0 0 105
c1 58 1 583 1 1168 l1 1062 436 0 437 1 -45 40 c-25 23 -83 76 -129 118 -47
42 -96 87 -110 100 -31 28 -155 139 -185 164 -12 10 -39 35 -61 55 -22 20 -83
75 -135 122 -52 47 -117 106 -145 131 -27 25 -72 66 -100 90 -27 24 -72 65
-100 90 -27 26 -68 62 -89 80 -22 19 -52 45 -66 59 -32 30 -48 45 -300 270
-107 96 -217 195 -244 220 -27 25 -54 50 -60 55 -112 99 -197 176 -222 200
-18 16 -54 49 -80 72 -27 23 -63 55 -80 70 -71 65 -697 628 -726 654 -18 16
-35 29 -39 29 -3 0 -21 -15 -41 -32z m502 -1446 c70 -23 167 -78 223 -127 80
-70 150 -191 178 -305 17 -71 20 -571 4 -650 -24 -113 -90 -211 -190 -280 -34
-23 -70 -38 -165 -68 -8 -2 6 -10 32 -17 126 -34 227 -116 283 -228 20 -40 39
-94 43 -122 4 -27 7 -171 7 -320 -2 -217 -5 -283 -19 -334 -41 -157 -157 -304
-297 -374 -130 -66 -143 -67 -821 -67 -335 0 -609 3 -609 8 -1 4 -2 134 -3
289 -1 275 -1 282 19 285 11 2 273 3 583 2 l562 0 0 291 0 291 -277 -1 c-153
0 -284 1 -290 3 -10 3 -13 71 -13 293 l0 289 290 0 290 0 0 293 0 292 -580 -1
c-518 0 -580 2 -581 15 -3 39 -5 547 -2 557 3 7 192 10 636 9 615 -2 634 -2
697 -23z"/>
</g>
</svg>
